# xmcd
#
# Track frame offsets:
#	150
#	20078
#	45819
#	63167
#	81411
#	113922
#	139244
#	161777
#	190098
#	210690
#	229470
#	247595
#	267128
#	286220
#	306532
#	321850
#
# Disc length: 4531 seconds
#
# Revision: 0
# Processed by: cddbd v1.5.1PL0 Copyright (c) Steve Scherf et al.
# Submitted via: dBpowerAMP V4.0
#
DISCID=e311b110
DTITLE=Secret garden - Vast dark Night disk 2
DYEAR=1900
DGENRE=Blues
TTITLE0=Embrace at the setting sun 
TTITLE1=Secret Soul
TTITLE2=All love for you
TTITLE3=The person who don't know love
TTITLE4=Wave
TTITLE5=The letter to allce
TTITLE6=Autumn leaf
TTITLE7=Arrow of love
TTITLE8=Lonely bowstring tone
TTITLE9=Thinking
TTITLE10=Fall in love at first night
TTITLE11=Who cry for me
TTITLE12=Road in the green
TTITLE13=Dawn
TTITLE14=Dark demon
TTITLE15=Free fall
EXTD=
EXTT0=
EXTT1=
EXTT2=
EXTT3=
EXTT4=
EXTT5=
EXTT6=
EXTT7=
EXTT8=
EXTT9=
EXTT10=
EXTT11=
EXTT12=
EXTT13=
EXTT14=
EXTT15=
PLAYORDER=
